<?xml version="1.0" encoding="utf-8"?><svg xmlns="http://www.w3.org/2000/svg" xmlns:xlink="http://www.w3.org/1999/xlink"><symbol viewBox="0 0 32 22" id="icon-arrow-right" xmlns="http://www.w3.org/2000/svg"><path d="M1 11h30M21 1l10 10-10 10" fill="none" stroke-linecap="round" stroke-linejoin="round" stroke="#000" stroke-width="2"/></symbol><symbol viewBox="0 0 12 22" id="icon-chevron-right" xmlns="http://www.w3.org/2000/svg"><path stroke="#000" stroke-width="2" d="M1 1l10 10L1 21" fill="none" stroke-linecap="round" stroke-linejoin="round"/></symbol><symbol viewBox="0 0 180 40" id="icon-logo" xmlns="http://www.w3.org/2000/svg"><path d="M49.651 13.393c-.02-1.124-.581-1.686-1.686-1.686-.097 0-.272.01-.524.029l-.058-.262c1.629-.116 3.596-.368 5.903-.756 2.308-.388 3.757-.61 4.348-.669a16.864 16.864 0 0 1 1.643-.087c1.551 0 2.778.14 3.679.421.902.282 1.692.645 2.37 1.091.679.446 1.222 1.057 1.629 1.832.446.853.669 1.76.669 2.72 0 .959-.126 1.807-.378 2.544a5.473 5.473 0 0 1-1.076 1.89c-1.396 1.59-3.18 2.385-5.351 2.385-.757 0-1.445-.117-2.065-.35-1.144-.426-1.88-1.182-2.21-2.268l.29-.174c.272.388.718.582 1.338.582.95 0 1.793-.563 2.53-1.687.446-.717.67-1.667.67-2.85 0-1.648-.418-2.87-1.251-3.664-.62-.601-1.406-.902-2.356-.902-.233 0-.475.02-.727.058l-1.425.204v16.925c.02.504.208.936.567 1.294.359.359.79.538 1.294.538h.378v.291h-10.44v-.29h.378c.504 0 .936-.18 1.294-.539.359-.358.548-.79.567-1.294V13.393zm20.096 17.158c.504 0 .935-.179 1.294-.538.358-.358.547-.79.567-1.294V12.58a1.82 1.82 0 0 0-.567-1.28 1.79 1.79 0 0 0-1.294-.523h-.379v-.29h10.44v.29h-.377a1.79 1.79 0 0 0-1.295.523 1.82 1.82 0 0 0-.567 1.28v16.14c0 .504.185.936.553 1.294.368.359.805.538 1.309.538h.378v.291h-10.44v-.29h.378zm30.535-16.867c.31.679.465 1.381.465 2.109 0 .727-.077 1.366-.232 1.919a6.609 6.609 0 0 1-.727 1.643c-.718 1.163-1.949 1.88-3.694 2.152a5.049 5.049 0 0 1 2.036 1.134c.64.543 1.24 1.3 1.803 2.269 1.454 2.481 2.569 4.08 3.344 4.798.582.543 1.319.824 2.21.843v.291h-3.635c-2.52 0-4.323-.281-5.409-.843-1.55-.795-2.656-2.162-3.315-4.1a18.222 18.222 0 0 1-.45-1.775 15.418 15.418 0 0 0-.32-1.352 5.753 5.753 0 0 0-.306-.785 2.056 2.056 0 0 0-.378-.567 2.26 2.26 0 0 0-.814-.524v-.29h.465c1.124 0 1.968-.514 2.53-1.542.29-.543.47-1.13.538-1.76.068-.63.102-1.022.102-1.177v-.29c-.136-2.56-1.241-3.84-3.316-3.84H89.9V28.72c0 .504.185.936.553 1.294.369.359.805.538 1.31.538h.348v.291H81.67v-.29h.378a1.79 1.79 0 0 0 1.294-.524 1.82 1.82 0 0 0 .567-1.28v-16.14c-.02-.717-.33-1.25-.93-1.6a1.948 1.948 0 0 0-.931-.232h-.378v-.29h11.37c3.8 0 6.214 1.065 7.242 3.198zm25.3 16.867h.233v.291h-11.022v-.29h.262c.427 0 .747-.132.96-.393.213-.262.32-.504.32-.727 0-.223-.049-.46-.146-.713l-1.134-2.704h-6.223l-1.163 2.704c-.097.252-.146.456-.146.61 0 .156.034.326.102.51.068.184.213.349.436.494.223.146.46.218.713.218h.261v.291h-6.485v-.29h.262c.446 0 .887-.132 1.323-.393.436-.262.8-.655 1.09-1.178l6.777-14.86c1.027-2.172 1.58-3.616 1.657-4.334h.262l9.219 19.165c.62 1.066 1.434 1.6 2.443 1.6zm-16.11-5.99h4.973l-2.443-5.817-2.53 5.817zm25.388-12.65v16.837c.019.504.208.93.567 1.28.358.349.79.523 1.294.523h.378v.291h-10.44v-.29h.378a1.79 1.79 0 0 0 1.294-.524 1.79 1.79 0 0 0 .567-1.25V11.91h-2.88c-1.162.02-2.074.364-2.733 1.033-.659.668-.989 1.584-.989 2.748v.203l-.29.03V9.932c.271.116.76.232 1.468.349a12.16 12.16 0 0 0 1.963.174h12.883c.601 0 1.25-.058 1.949-.174.698-.117 1.192-.233 1.483-.35v5.991l-.291-.029v-.203c0-1.57-.582-2.676-1.745-3.316-.562-.29-1.23-.445-2.006-.465h-2.85zm8.404 18.64c.504 0 .936-.179 1.294-.538.359-.358.548-.79.567-1.294V12.61a1.82 1.82 0 0 0-.785-1.484 1.745 1.745 0 0 0-1.076-.349h-.378v-.29h12.883c.834 0 1.575-.069 2.225-.204.65-.136 1.061-.243 1.236-.32v5.99h-.291v-.232c0-1.551-.562-2.637-1.687-3.257-.543-.31-1.192-.475-1.948-.495h-4.217v8.114h3.17c.93-.02 1.687-.325 2.268-.916.582-.591.873-1.352.873-2.283v-.116h.29v8.084h-.29v-.145c0-.911-.291-1.663-.873-2.254-.581-.591-1.328-.897-2.24-.916h-3.198v7.823h3.577c1.415 0 2.666-.465 3.751-1.396 1.086-.93 1.852-2.22 2.298-3.868h.29l-1.104 6.747h-17.013v-.29h.378zm35.741-6.281c0 2.346-.834 4.095-2.501 5.249-1.667 1.153-3.887 1.73-6.66 1.73-1.609 0-3.024-.18-4.245-.538-1.222-.358-2.104-.81-2.647-1.352a3.613 3.613 0 0 1-.262-1.381c0-.495.04-.975.117-1.44.213-1.144.572-2.036 1.076-2.675h.261a2.34 2.34 0 0 0-.029.378c0 1.434.567 2.719 1.702 3.853 1.134 1.134 2.68 1.701 4.638 1.701 1.318 0 2.331-.276 3.04-.829.707-.552 1.06-1.182 1.06-1.89s-.242-1.313-.726-1.818c-.485-.504-1.27-1.008-2.356-1.512l-4.74-2.21c-1.338-.6-2.307-1.444-2.908-2.53a5.61 5.61 0 0 1-.727-2.82c0-2.095.707-3.685 2.122-4.77 1.183-.892 2.754-1.338 4.712-1.338 1.28 0 2.917.097 4.914.29h2.269l-.64 4.741h-.29c0-1.066-.418-1.929-1.251-2.588-.834-.66-1.895-.989-3.185-.989-1.289 0-2.287.223-2.995.669-.708.446-1.09 1.037-1.149 1.774-.077.911.504 1.687 1.745 2.326.213.117.494.243.843.379l5.439 2.53c2.249 1.027 3.373 2.714 3.373 5.06zM29.224 15.547a8.45 8.45 0 0 0 .819-.195 4.7 4.7 0 0 0 1.275-.72c.28-.217.394-.336.868-.92.304-.367.75-.894.995-1.174.246-.281.636-.723.865-.987.489-.552 2.675-3.15 3.228-3.829.208-.254.619-.729.91-1.056.77-.85 2.112-2.423 2.161-2.536.038-.09-.049-.286-.15-.341a.31.31 0 0 0-.18-.018c-.112.026-.193.102-3.58 3.344-3.792 3.636-3.6 3.456-3.722 3.456-.122 0-.252-.112-.324-.272-.035-.069-.02-.13.035-.208.043-.06.645-.703 1.336-1.429a2216.62 2216.62 0 0 0 4.353-4.584l1.041-1.099-.008-.142c-.012-.167-.105-.266-.266-.283-.116-.011-.148.009-.66.48a522.97 522.97 0 0 0-4.463 4.238c-.85.82-1.706 1.63-1.9 1.801l-.35.31-.118-.067c-.148-.078-.237-.22-.197-.306.035-.075.752-.862 2.742-3.008.819-.882 1.81-1.95 2.198-2.372.39-.42.949-1.018 1.238-1.33.506-.541.53-.57.53-.703 0-.173-.16-.338-.322-.338-.115 0-.153.037-3.583 3.468-3.289 3.288-3.474 3.468-3.584 3.48-.141.014-.393-.174-.465-.35-.07-.168-.003-.275.492-.81.228-.252.87-.946 1.428-1.55 2.462-2.67 3.147-3.408 3.5-3.76.208-.209.576-.594.816-.857.379-.408.442-.494.442-.587 0-.133-.144-.277-.283-.277-.127 0-.145.011-1.784 1.46-.669.587-1.747 1.539-2.401 2.112-.65.575-1.516 1.347-1.923 1.72-.408.374-.935.848-1.172 1.056-.24.206-.896.787-1.46 1.287-.564.5-1.154 1.021-1.313 1.157a3.784 3.784 0 0 0-.472.507 7.816 7.816 0 0 0-.569 1.014 10.766 10.766 0 0 1 3.977 5.218zM13.995 28.625a635.752 635.752 0 0 0-4.95 5.33c-1.95 2.13-4.428 4.776-4.558 4.871-.648.463-1.484.75-2.045.698-.425-.038-.625-.133-.945-.454-.264-.258-.284-.29-.388-.602-.136-.396-.13-.731.023-1.214.23-.709.588-1.218 1.305-1.843.246-.21.714-.639 1.041-.948.57-.535 3.636-3.358 5.756-5.293a375.137 375.137 0 0 0 2.558-2.352c.074.104.152.202.236.293a7.807 7.807 0 0 0 1.967 1.514zm-.295-17.64c-1.19-1.308-2.181-2.353-4.309-4.554-2.875-2.973-4.32-4.42-4.636-4.648-.642-.457-1.174-.717-1.515-.74-.457-.03-.978.33-1.145.798-.2.546-.075 1.445.347 2.516.359.908 1.22 2.44 1.973 3.522.295.422.674.969.844 1.215.883 1.281 1.481 1.984 4.252 4.974.238.257.676.715 1.169 1.223a9.871 9.871 0 0 1 1.71-2.986c.4-.481.838-.923 1.31-1.32zm14.854 15.761c.837.744 1.81 1.58 3.094 2.664.714.605 1.64 1.398 2.053 1.765.414.367 1.07.92 1.46 1.23.388.312.955.774 1.259 1.026.3.254.752.625.998.824.957.778 1.648 1.377 1.83 1.582.252.293.362.576.354.943-.02.674-.388 1.313-1.165 2.021-.645.587-1.197.856-1.79.876-.443.009-.657-.084-1.05-.477-.498-.498-2.207-2.432-5.076-5.741a101.458 101.458 0 0 0-2.734-3.052 240.57 240.57 0 0 1-1.676-1.854c.801-.322 1.749-1.044 2.338-1.686.036-.039.07-.08.105-.121z"/><path d="M19.987 9.735c-5.325 0-9.84 5.26-8.479 10.42.331 1.257.68 2.41 1.087 3.443-.643.716-.365 2.099.246 2.767.376.409 1.214 1.112 1.917 1.399.569-.084 2.233-.178 2.13 1.587.193.079.395.147.603.209v-.698h.251v.767c.337.086.69.153 1.057.197v-.964h.25v.989c.34.032.69.05 1.049.05h.009v-1.04h.25v1.035c.357-.008.707-.03 1.044-.07v-.964h.251v.927a7.82 7.82 0 0 0 1.006-.214v-.713h.25v.635c.144-.047.284-.097.42-.154-.28-2.206 1.943-1.836 2.259-1.773.727-.245 1.65-1.015 2.048-1.45.637-.693.915-2.163.168-2.85-.025-.024-.054-.04-.08-.062.277-.809.522-1.695.75-2.66 1.222-5.194-3.16-10.813-8.486-10.813zm-2.041 13.23c-.915.665-1.91 1.946-3.13 1.202-1.22-.743-1.248-3.47-.532-4.552.615-.93 4.14-.705 4.594.075.454.78-.017 2.61-.932 3.275zm3.253 3.277c-.112.339-.81-.107-1.123-.327-.312.22-1.01.666-1.123.327-.146-.439.765-3.173.874-3.394a.486.486 0 0 1 .134-.163.107.107 0 0 1 .107-.056h.016c.044-.004.081.014.108.057.052.04.1.096.133.162.109.221 1.02 2.956.874 3.394zm4.34-2.292c-1.167.822-2.244-.39-3.201-.99-.958-.602-1.55-2.398-1.148-3.207.401-.809 3.904-1.269 4.58-.382.785 1.033.937 3.756-.23 4.579z"/></symbol></svg>