<svg version="1" xmlns="http://www.w3.org/2000/svg" width="933.333" height="933.333" viewBox="0 0 700.000000 700.000000"><path d="M615 1.9c-1.4.9-2.9 2.1-3.5 2.7-.5.6-8.2 7.3-17 15-14.5 12.6-20.7 18-23.9 20.9-.6.6-4.7 4.2-9.1 8-7 6.1-33.1 29.2-36.1 32-4.3 3.9-18.1 16.3-19.8 17.8-1.2 1-5.4 4.9-9.5 8.5-4.1 3.7-8.3 7.5-9.5 8.5-3.5 3.1-14.9 13.1-16 14.2-.6.5-4.5 3.9-8.6 7.5-25.1 21.7-26.9 23.7-34.7 38.1l-3.1 5.6 7 5.3c16.1 12.3 30.5 27.9 42.5 45.7 6.3 9.5 15.8 28 18.2 35.5.7 2.1 1.6 4 2 4.2 1.3.9 15.3-2.9 20.6-5.4 11.2-5.5 19.4-12 29.1-23.5 6.5-7.7 29-33.9 36.8-43 3.4-3.9 8.1-9.5 10.6-12.4 2.5-3 5-5.9 5.5-6.5.6-.6 6.9-8.1 14-16.6 18.8-22.4 34-40.3 49.9-58.5 16.3-18.6 15.8-17.9 23-26.9 3.1-3.8 5.6-7.2 5.6-7.6 0-.4-.8-1.8-1.8-3-1.4-1.7-2.5-2.1-4.3-1.7-2.5.7-4 2.1-33.9 30.7-9.6 9.2-19.7 18.8-22.5 21.5-2.7 2.6-9 8.6-14 13.3-4.9 4.7-17.8 16.9-28.5 27.2-27.3 26.1-27.5 26.3-30.3 25.6-1.3-.3-2.9-1.7-3.6-3.2-1.7-3.8-3.2-1.8 23.9-30.4 7.5-8 15.4-16.3 17.4-18.5 5.2-5.5 32.2-33.9 37.1-39 2.2-2.3 10.3-10.8 18-19 7.7-8.1 15.2-16 16.6-17.4 6-6.1 5.8-12-.5-12.1-2.7 0-5.7 2.7-40.6 35.9-10.2 9.7-22.5 21.4-27.5 26.1-4.9 4.7-10.5 10.1-12.6 12-4.1 4-33.9 32.2-38 36-1.4 1.4-4.2 4-6.2 5.8-3 2.9-3.8 3.2-5.6 2.3-1.1-.6-2.5-2-3.1-3.1-.9-1.6.1-3.2 6.7-10.7 4.3-4.8 10.5-11.7 13.9-15.3 3.5-3.6 7.1-7.4 8.1-8.6 2-2.4 17.3-19 21.8-23.8 1.7-1.7 8-8.5 14-15C599.6 80 605.6 73.5 607 72c2.8-2.9 21.8-23.5 26.4-28.4 1.5-1.7 4.5-4.9 6.5-7.1 5.3-5.6 6.3-7.8 5.2-10.8-1.5-3.8-4.6-4.3-8.4-1.3-1.8 1.4-27.7 26.9-57.7 56.7-30 29.8-56.6 56.1-59.2 58.4-5.5 4.9-7.4 4.9-11.3.3-3.9-4.7-3.4-5.6 11.7-22 5.1-5.6 10.6-11.5 12.2-13.2 1.5-1.7 7.6-8.3 13.5-14.6 5.9-6.3 13.8-14.9 17.7-19 3.8-4.1 7.6-8.2 8.4-9 .8-.9 6.5-6.9 12.5-13.4 11.7-12.6 12-13 26.2-27.9 5.1-5.4 10.1-11.1 11.2-12.6 2-2.8 2-3 .2-5.2-2.3-2.8-3.9-3.1-7.1-1zM30.7 20.1c-5.3 2.8-10.6 8.7-11.8 13.3-1.1 3.9-1.3 14.9-.5 19.1C20.9 65 25.7 78 33 92.4c7.3 14.5 19.1 34.7 22.1 38.2 1.1 1.1 1.9 2.3 1.9 2.7 0 .4 5.9 9.1 13.1 19.4 11.7 16.7 26 35.2 35 45.3 6.5 7.3 16.5 18.5 18.4 20.6 12.6 13.7 22.4 24.3 29.1 31.4 4.5 4.7 10 10.5 12.3 12.9 2.3 2.4 4.3 4.2 4.5 4 .2-.2 1.8-3.8 3.5-7.9 4.2-9.9 9.9-20.4 16.2-29.8 2.9-4.2 5.5-7.9 5.8-8.2.3-.3 2-2.3 3.6-4.5s7.6-8.6 13.3-14.3l10.3-10.2-5.8-6.2c-3.2-3.4-6.2-6.7-6.8-7.4-11.6-13.2-72.6-76.3-113.5-117.5-25.7-25.8-30.6-30.2-38-34.6-4.7-2.7-10-5.6-11.8-6.3-5.1-2-11.4-2-15.5.1zM318.5 171.1c-14.8 1.9-15.5 2.1-27.5 5.6-10.4 3-9.6 2.7-25 10.2-50.6 24.8-85.8 78.2-86.2 130.9-.2 20.8 3.6 38 17.6 79.4 4.8 14 5.2 15.9 3.9 17.7-2.7 3.9-4.5 10.6-4.5 17.1 0 13 4.3 23.1 14.2 32.9 6.5 6.3 20.7 17.1 22.7 17.1.5 0 2 .8 3.3 1.7 1.9 1.4 4.7 1.8 11.5 1.9 11.2.1 16 1.4 21.2 5.9 5.7 4.8 8.1 10.2 8.2 18.6.1 3.3.4 3.6 4.9 5.2 2.6.9 5 1.7 5.3 1.7.3 0 .5-2.6.5-5.8 0-5.1.2-5.7 2.2-6 2.1-.3 2.2 0 2.2 6.5v6.9l5.8 1.1c3.1.7 7.3 1.5 9.2 1.8l3.6.5-.1-8.2c0-7.9.1-8.3 2.3-8.6 2.2-.3 2.2-.1 2.1 7.8-.1 4.4.2 8.4.5 8.8.4.3 1.9.7 3.4.8 9.2.6 12.9.7 13.8.1.5-.3.9-4.4.9-9.1-.1-8.4-.1-8.6 2.3-8.6 2.2 0 2.3.2 2.2 7.3-.2 12-1 10.9 7.3 10.3 3.9-.3 8-.5 9-.5 1.5-.1 1.7-1.2 1.7-8.7 0-8.3.1-8.5 2.3-8.2 2.1.3 2.2.7 2.1 8-.2 8.9-.8 8.5 10.1 6.1l7.5-1.6v-6.4c0-5.6.2-6.3 2-6.3 2.1 0 2.2.2 2.3 6.7 0 4.8.2 4.9 4.3 2.8 2.6-1.3 2.9-1.9 3-7.2.1-8.3 2-13.8 6.1-17.9 6.6-6.6 14.4-8.5 30.9-7.4 4.7.4 12.7-3.6 23.3-11.6 19-14.2 26.4-27.1 25.6-44.2-.3-7.5-2.4-13.4-6.2-17.4l-2.5-2.6 2.7-8.9c2.7-8.9 10.1-36.7 11-41.3.3-1.4.7-3.4.9-4.5 2.7-13.6 2.3-35.7-1-51.7-13-63-63.6-114.9-123.6-126.8-11-2.2-30.2-3.1-39.3-1.9zm95.6 160.3c15.9 1.7 21.6 6.8 26.7 24 1.9 6.3 2.5 11 2.8 21.1.5 20.7-2.4 30.6-11.6 39.7-4.9 4.8-6.6 5.8-11.3 6.8-7 1.4-11.5.7-19.3-2.9-7.9-3.7-28.6-18.2-34.5-24.3-13.7-13.8-20.2-43-11.7-52.4 2.9-3.3 11.8-7.2 21.4-9.5 8.2-1.9 25.1-3.8 30.4-3.3 1.4.2 4.6.5 7.1.8zM291.9 335c7.5 1.3 13.4 3.5 17.5 6.3 12.1 8.4 5.5 44.5-10.7 58.7-23.5 20.5-33.2 26.3-43.7 26.4-18.9 0-30.2-18.1-30.3-48.4 0-19.3 4.4-33.4 12.1-38.4 10.2-6.7 33.5-8.6 55.1-4.6zm45 63.5c3.5 4.6 15.6 45.1 16.5 55.7.7 7.9-3 8.8-13.3 3.2l-6.7-3.6-5.4 3.3c-3.6 2.2-6.6 3.3-9.4 3.3l-4.1.1v-5c.1-2.8.4-6.4.7-8 1.4-6.8 6.2-23.7 9.9-34.8 5.6-16.9 7.6-19.4 11.8-14.2zM478.4 472.1c-8.5 8.9-23.9 20.3-33.6 25-2.7 1.3-4.8 2.5-4.8 2.8 0 .4 1.5 2.2 3.3 4.1 1.7 1.9 7.5 8.2 12.7 14 11.9 13.1 16 17.7 19.6 21.6 9.9 10.7 20 22.1 33.4 37.4 8.5 9.6 15.6 17.7 15.9 18 .3.3 3.3 3.6 6.6 7.5 3.3 3.8 7.4 8.6 9.1 10.5 1.7 1.9 9.8 11.1 17.9 20.5 8.1 9.3 18.2 20.8 22.4 25.4 4.2 4.6 8.4 9.3 9.4 10.5 10.8 12.5 19.6 21 23.5 22.7 11.9 5.4 27.8-.2 43.2-15.2 12.8-12.5 18.2-22.5 18.2-33.5 0-11.6-3.6-15.8-38.6-44.4-1-.8-2.3-2-3-2.5-.6-.6-9-7.5-18.6-15.3-9.6-7.9-18.6-15.3-20-16.5-1.4-1.3-5.2-4.5-8.5-7.2-9.9-8.3-75.9-64.7-77-65.9-.6-.6-3.9-3.6-7.5-6.6-6.7-5.6-8.6-7.2-15.6-13.4l-4.1-3.5-3.9 4zM186.8 471.2c-.7.7-6.7 6.2-13.3 12.3-6.6 6-12.5 11.4-13.1 12-.6.5-5.5 5-10.9 10-10.3 9.4-20.4 18.8-26.2 24.2-1.9 1.7-7 6.4-11.3 10.3-4.3 3.9-9.4 8.6-11.3 10.3C95.1 555.5 86 563.9 75 574c-5.7 5.2-11.3 10.4-12.5 11.5-2.7 2.5-10.1 9.4-24 22-16.3 14.8-27.1 25.8-29 29.6-1 1.9-2.2 4-2.8 4.8-1.3 1.5-3.3 6.6-5.1 13.1-1.7 6-1.2 15 1.2 20.3 2.2 4.9 9.1 11.9 13.8 14.2 7.8 3.7 21.2 2 34.4-4.3 8.2-3.9 12.1-7.5 36.5-33.6 7.2-7.6 14.4-15.3 16-17.1 1.7-1.7 7.3-7.8 12.5-13.5s10.4-11.3 11.5-12.4c2.5-2.7 23.6-25.5 29.2-31.6 2.3-2.5 6.3-6.8 9-9.6 4.8-5.1 23.5-25.2 28.7-30.9 10.2-11 21.3-22.9 26.5-28.5 3.3-3.6 6.1-6.8 6.1-7.1 0-.3-1.2-1.1-2.7-1.8-5.7-2.6-19.2-12.9-27.2-20.8-4.6-4.6-8.5-8.3-8.7-8.3-.1 0-.9.6-1.6 1.2z"/></svg>